<svg xmlns="http://www.w3.org/2000/svg" width="26.544" height="26.059" viewBox="0 0 26.544 26.059"><defs><style>.a{fill:#fff;}</style></defs><path class="a" d="M26.049,3.517H17.157V5.163h2.621v2.6H17.157V8.6h2.621V11.2H17.157v.853h2.621v2.465H17.157v.988h2.621v2.471H17.157v.988h2.621v2.485H17.157v1.813h8.892c.14-.042.258-.208.352-.5a2.425,2.425,0,0,0,.143-.7V3.818c0-.142-.049-.227-.143-.257A1.217,1.217,0,0,0,26.049,3.517ZM24.9,21.45H20.63V18.967H24.9V21.45Zm0-3.471H20.63V15.507H24.9Zm0-3.46H20.63V12.065H24.9V14.52Zm0-3.318H20.63V8.6H24.9v2.6h0Zm0-3.45H20.63V5.164H24.9V7.752ZM0,3.107V23.679l15.661,2.709V.328L0,3.116ZM9.283,18.669q-.09-.242-.838-2.06c-.5-1.212-.8-1.918-.884-2.119H7.533l-1.68,4-2.245-.152,2.663-4.977L3.832,8.382l2.289-.121,1.513,3.894h.03L9.373,8.085l2.366-.149L8.922,13.322l2.9,5.495-2.543-.149Z" transform="translate(0 -0.328)"/></svg>